<svg width="100%" height="100%" xmlns="http://www.w3.org/2000/svg">
  <!-- Light cream background -->
  <rect width="100%" height="100%" fill="#F8F6E9"/>
  
  <!-- Horizontal ruled lines -->
  <g stroke="#D3CDBB" stroke-width="1">
    <line x1="0" y1="24" x2="100%" y2="24"/>
    <line x1="0" y1="48" x2="100%" y2="48"/>
    <line x1="0" y1="72" x2="100%" y2="72"/>
    <line x1="0" y1="96" x2="100%" y2="96"/>
    <line x1="0" y1="120" x2="100%" y2="120"/>
    <line x1="0" y1="144" x2="100%" y2="144"/>
    <line x1="0" y1="168" x2="100%" y2="168"/>
    <line x1="0" y1="192" x2="100%" y2="192"/>
    <line x1="0" y1="216" x2="100%" y2="216"/>
    <line x1="0" y1="240" x2="100%" y2="240"/>
    <line x1="0" y1="264" x2="100%" y2="264"/>
    <line x1="0" y1="288" x2="100%" y2="288"/>
  </g>
  
  <!-- Red margin line -->
  <line x1="40" y1="0" x2="40" y2="100%" stroke="#CF5C60" stroke-width="1"/>
  
  <!-- Add a subtle paper texture pattern -->
  <filter id="paper-noise" x="0" y="0" width="100%" height="100%">
    <feTurbulence type="fractalNoise" baseFrequency="0.3" numOctaves="3" stitchTiles="stitch" result="noise"/>
    <feColorMatrix type="matrix" values="0 0 0 0 0 0 0 0 0 0 0 0 0 0 0 0 0 0 0.03 0" in="noise" result="coloredNoise"/>
    <feComposite operator="in" in="coloredNoise" in2="SourceGraphic" result="monoNoise"/>
    <feBlend mode="multiply" in="monoNoise" in2="SourceGraphic" result="blend"/>
  </filter>
  
  <rect width="100%" height="100%" fill="transparent" filter="url(#paper-noise)"/>
</svg> 